name analog
datacolumns 19
datarows 23
range 0.0 0.011
endheader
time	ground_force_vx	ground_force_vy	ground_force_vz	ground_force_px	ground_force_py	ground_force_pz	l_ground_force_vx	l_ground_force_vy	l_ground_force_vz	l_ground_force_px	l_ground_force_py	l_ground_force_pz	ground_torque_x	ground_torque_y	ground_torque_z	l_ground_torque_x	l_ground_torque_y	l_ground_torque_z
0.0	-0.0	-0.0	-0.0	-3.967020273208618	31.65361785888672	-291.0916748046875	-1.0107063055038452	-33.226322174072266	-330.1791076660156	-0.0	-0.0	-0.0	-0.0	-0.0	-0.0	101938.375	5061.94482421875	-4714.07470703125
0.0005	-0.0	-0.0	-0.0	-3.6157889366149902	31.57030296325684	-292.742431640625	-1.105812668800354	-33.26755142211914	-330.2041015625	-0.0	-0.0	-0.0	-0.0	-0.0	-0.0	101976.0	5083.708984375	-4735.80322265625
0.001	-0.0	-0.0	-0.0	-3.967250108718872	31.261180877685547	-290.126953125	-1.1768815517425537	-32.80276870727539	-329.0169372558594	-0.0	-0.0	-0.0	-0.0	-0.0	-0.0	101997.8203125	4916.62451171875	-4791.02685546875
0.0015	-0.0	-0.0	-0.0	-3.502763032913208	31.190643310546875	-291.020263671875	-1.022985339164734	-32.89703369140625	-330.22674560546875	-0.0	-0.0	-0.0	-0.0	-0.0	-0.0	102166.84375	4739.26123046875	-4749.32373046875
0.002	-0.0	-0.0	-0.0	-3.8548214435577393	31.172182083129883	-291.280517578125	-1.4140396118164062	-32.96739959716797	-329.691650390625	-0.0	-0.0	-0.0	-0.0	-0.0	-0.0	101972.4140625	4662.82666015625	-4712.021484375
0.0025	-0.0	-0.0	-0.0	-3.676527261734009	31.219057083129883	-292.48980712890625	-0.8636389374732971	-32.85566711425781	-330.133056640625	-0.0	-0.0	-0.0	-0.0	-0.0	-0.0	102182.125	4824.99755859375	-4731.66259765625
0.003	-0.0	-0.0	-0.0	-3.277393102645874	31.12551689147949	-289.1790466308594	-0.9573881030082704	-32.823944091796875	-330.9232177734375	-0.0	-0.0	-0.0	-0.0	-0.0	-0.0	102097.5078125	4758.42724609375	-4630.44482421875
0.0035	-0.0	-0.0	-0.0	-3.3666765689849854	31.23409080505371	-291.1287841796875	-1.307307481765747	-32.943992614746094	-330.04022216796875	-0.0	-0.0	-0.0	-0.0	-0.0	-0.0	102173.1484375	4766.34912109375	-4561.9404296875
0.004	-0.0	-0.0	-0.0	-3.0991034507751465	30.97473526000977	-291.18927001953125	-0.9148776531219482	-33.15811538696289	-329.8565979003906	-0.0	-0.0	-0.0	-0.0	-0.0	-0.0	102264.8046875	4524.798828125	-4546.1748046875
0.0045000000000000005	-0.0	-0.0	-0.0	-3.1920325756073	31.04058074951172	-290.0381164550781	-1.176493763923645	-33.01344680786133	-328.8262634277344	-0.0	-0.0	-0.0	-0.0	-0.0	-0.0	102175.96875	4681.849609375	-4524.4931640625
0.005	-0.0	-0.0	-0.0	-2.831587553024292	31.195640563964844	-292.4061889648437	-0.90627521276474	-33.055389404296875	-329.4324645996094	-0.0	-0.0	-0.0	-0.0	-0.0	-0.0	102112.609375	4568.3642578125	-4443.1435546875
0.0055	-0.0	-0.0	-0.0	-2.7424354553222656	31.30784034729004	-290.0521545410156	-0.729027509689331	-33.07835388183594	-330.8898620605469	-0.0	-0.0	-0.0	-0.0	-0.0	-0.0	102077.59375	4219.451171875	-4399.1982421875
0.006	-0.0	-0.0	-0.0	-2.831718683242798	30.818979263305664	-291.2025146484375	-0.709686279296875	-32.74787521362305	-329.766845703125	-0.0	-0.0	-0.0	-0.0	-0.0	-0.0	102075.890625	4161.92041015625	-4412.1806640625
0.006500000000000001	-0.0	-0.0	-0.0	-2.8060944080352783	31.03764533996582	-291.9085388183594	-0.6243001222610474	-32.96358871459961	-330.1163024902344	-0.0	-0.0	-0.0	-0.0	-0.0	-0.0	102317.984375	4410.06494140625	-4383.70654296875
0.007	-0.0	-0.0	-0.0	-2.564187526702881	30.640417098999023	-290.0709228515625	-0.7524951696395874	-32.587623596191406	-330.1949462890625	-0.0	-0.0	-0.0	-0.0	-0.0	-0.0	102121.1015625	4071.193603515625	-4280.43408203125
0.0075	-0.0	-0.0	-0.0	-2.3880062103271484	30.658693313598636	-290.3957824707031	-0.4664324223995209	-32.76455307006836	-329.25	-0.0	-0.0	-0.0	-0.0	-0.0	-0.0	102161.953125	4244.39990234375	-4436.24658203125
0.008	-0.0	-0.0	-0.0	-2.340277194976806	30.283552169799805	-291.2752685546875	-0.5498301386833191	-32.4569091796875	-330.0381774902344	-0.0	-0.0	-0.0	-0.0	-0.0	-0.0	102486.640625	3995.890869140625	-4251.47412109375
0.0085	-0.0	-0.0	-0.0	-2.051841735839844	30.10333633422852	-291.8996276855469	-0.5753870010375977	-32.26011276245117	-330.5471496582031	-0.0	-0.0	-0.0	-0.0	-0.0	-0.0	102216.0	3949.681640625	-4162.3935546875
0.009000000000000001	-0.0	-0.0	-0.0	-1.9626312255859373	30.014278411865234	-290.1282043457031	-0.3775649666786194	-32.50455093383789	-331.0680236816406	-0.0	-0.0	-0.0	-0.0	-0.0	-0.0	102246.859375	3771.336181640625	-4213.94775390625
0.0095	-0.0	-0.0	-0.0	-1.6936976909637451	30.25912094116211	-288.5531616210937	-0.422833651304245	-32.06077575683594	-329.94830322265625	-0.0	-0.0	-0.0	-0.0	-0.0	-0.0	102471.6171875	3565.62109375	-4065.48876953125
0.01	-0.0	-0.0	-0.0	-1.9841759204864504	29.769554138183597	-288.990478515625	-0.7724990844726562	-32.01578903198242	-330.9892578125	-0.0	-0.0	-0.0	-0.0	-0.0	-0.0	102600.296875	3385.71630859375	-4065.1005859375
0.0105	-0.0	-0.0	-0.0	-1.850907802581787	29.614625930786133	-291.63751220703125	-0.5743926763534546	-32.126644134521484	-330.9898986816406	-0.0	-0.0	-0.0	-0.0	-0.0	-0.0	102704.8046875	3542.6435546875	-3976.009765625
0.011	-0.0	-0.0	-0.0	-1.650059461593628	29.70220375061035	-288.6369934082031	-0.3985411822795868	-31.6652889251709	-332.1317749023437	-0.0	-0.0	-0.0	-0.0	-0.0	-0.0	102811.1328125	3333.002685546875	-3917.3330078125
